<svg xmlns="http://www.w3.org/2000/svg" viewBox="0 0 148 50" role="img"><title>IRA Towers — Transforming Spaces, Enhancing Lives</title><path fill="#ffffff" d="M127.33 42.95C127.85 42.68 128.01 42.16 128.01 41.04L128.01 32.73C128.01 31.64 127.83 31.04 127.28 30.72L130.94 30.72C130.6 30.88 130.34 31.2 130.34 31.85L130.34 41.1C130.34 42.18 130.51 42.68 131.07 42.95L127.33 42.95M135.48 42.95L131.59 37.07C133.59 36.93 134.66 36.23 134.66 33.83C134.66 32.13 134.15 31.14 133.03 30.76C135.77 30.97 137.16 31.93 137.16 33.64C137.16 34.44 136.88 35.2 136.42 35.62C135.93 36.06 135.49 36.34 134.43 36.63L133.88 36.78L138.04 42.68C138.12 42.78 138.2 42.87 138.31 42.95L135.48 42.95"/><path fill="#fdb912" d="M96.71 36.98C96.71 40.89 95.59 42.53 94.32 43.13C97.32 42.55 99.32 40.12 99.32 36.84C99.32 33.47 97.17 30.94 94.06 30.46C95.36 30.99 96.71 32.6 96.71 36.98"/><path fill="#fdb912" d="M89.09 36.94C89.09 33.55 89.95 31.3 91.49 30.52C88.47 31.13 86.47 33.57 86.47 36.86C86.47 40.17 88.5 42.6 91.54 43.15C90.24 42.57 89.09 40.92 89.09 36.94"/><path fill="#ffffff" d="M145.41 36.57C144.85 36.25 144.29 35.97 143.75 35.7C143.35 35.5 142.96 35.29 142.57 35.08C141.02 34.27 140.37 33.74 140.37 32.54C140.37 31.69 140.75 31.02 141.38 30.62C139.89 31.06 139.06 32.2 139.06 33.9C139.06 35.52 139.9 36.52 142.14 37.59C142.28 37.66 142.43 37.73 142.57 37.8C143.26 38.13 143.97 38.48 144.54 38.88C145.39 39.48 145.81 40.14 145.81 40.9C145.81 41.88 145.35 42.66 144.58 43.09C146.26 42.6 147.31 41.32 147.31 39.61C147.31 38.37 146.58 37.2 145.41 36.57"/><path fill="#ffffff" d="M146.82 34.23C147.48 33.81 147.67 32.93 147.25 32.27C146.73 31.46 144.58 30.73 144.58 30.73C144.58 30.73 144.34 32.97 144.86 33.8C145.28 34.46 146.16 34.65 146.82 34.23"/><path fill="#ffffff" d="M139.63 39.59C138.97 40.01 138.78 40.89 139.2 41.55C139.72 42.36 141.87 43.09 141.87 43.09C141.87 43.09 142.11 40.85 141.59 40.02C141.17 39.36 140.29 39.17 139.63 39.59"/><path fill="#ffffff" d="M100.74 30.55L98.23 30.55C99.84 30.66 101.71 37.06 103.02 40.34C103.81 42.34 104.86 43.11 106.49 43.11L107.18 43.11C106.2 42.21 103.92 35.28 102.74 32.36C102.31 31.31 101.61 30.55 100.74 30.55"/><path fill="#ffffff" d="M105.85 30.55L103.33 30.55C104.95 30.66 106.82 37.06 108.13 40.34C108.92 42.34 109.96 43.11 111.59 43.11L112.28 43.11C111.31 42.21 109.02 35.28 107.84 32.36C107.41 31.31 106.72 30.55 105.85 30.55"/><path fill="#ffffff" d="M113.7 30.54C112.95 30.32 112.16 30.75 111.94 31.5C111.68 32.43 112.55 34.53 112.55 34.53C112.55 34.53 114.39 33.23 114.66 32.29C114.88 31.54 114.45 30.75 113.7 30.54"/><path fill="#ffffff" d="M81.77 41.06L81.77 30.69L79.44 30.69L79.44 41.06C79.44 42.1 79.3 42.63 78.73 42.92L82.46 42.92C81.94 42.64 81.77 42.12 81.77 41.06"/><path fill="#ffffff" d="M85.86 31.01C85.05 30.49 82.79 30.73 82.79 30.73C82.79 30.73 83.52 32.87 84.34 33.4C85 33.82 85.87 33.62 86.29 32.97C86.71 32.31 86.52 31.43 85.86 31.01"/><path fill="#ffffff" d="M75.33 31.01C74.67 31.43 74.47 32.31 74.89 32.97C75.31 33.62 76.18 33.82 76.85 33.4C77.68 32.87 78.39 30.73 78.39 30.73C78.39 30.73 76.14 30.49 75.33 31.01"/><path fill="#ffffff" d="M125.23 32.88L125.23 30.72L122.57 30.72C124.01 30.98 124.78 31.61 125.23 32.88"/><path fill="#ffffff" d="M119.65 30.72L115.93 30.72C116.36 30.97 116.6 31.41 116.6 32.17L116.6 41.41C116.6 42.21 116.4 42.68 115.84 42.95L119.61 42.95C119.17 42.75 118.92 42.37 118.92 41.67L118.92 32.02C118.92 31.34 119.15 30.92 119.65 30.72"/><path fill="#ffffff" d="M124.68 42.02C124.14 42.47 123.53 42.77 122.8 42.95L125.45 42.95L125.94 40.39C125.57 41.11 125.22 41.58 124.68 42.02"/><path fill="#ffffff" d="M123.92 36.67C123.92 35.88 123.28 35.25 122.5 35.25C121.54 35.25 119.76 36.67 119.76 36.67C119.76 36.67 121.52 38.08 122.5 38.08C123.28 38.08 123.92 37.45 123.92 36.67"/><path fill="#ffffff" d="M76.34 46.82L74.74 46.82L74.74 47.05L75.4 47.05L75.4 48.94L75.67 48.94L75.67 47.05L76.34 47.05L76.34 46.82"/><path fill="#ffffff" d="M78.15 48.94L78.44 48.94L78.44 48.93L77.95 48.03C78.08 47.98 78.17 47.9 78.24 47.81C78.31 47.71 78.35 47.59 78.35 47.46C78.35 47.25 78.28 47.09 78.16 46.99C78.03 46.88 77.86 46.82 77.62 46.82L76.94 46.82L76.94 48.94L77.21 48.94L77.21 48.09L77.7 48.09L78.15 48.94M77.21 47.05L77.63 47.05C77.77 47.05 77.88 47.09 77.96 47.16C78.04 47.23 78.07 47.33 78.07 47.46C78.07 47.58 78.03 47.68 77.95 47.75C77.87 47.82 77.77 47.86 77.63 47.86L77.21 47.86L77.21 47.05"/><path fill="#ffffff" d="M80.36 48.94L80.64 48.94L79.85 46.82L79.61 46.82L78.82 48.94L79.1 48.94L79.3 48.39L80.16 48.39L80.36 48.94M79.73 47.17L80.08 48.16L79.38 48.16L79.73 47.17"/><path fill="#ffffff" d="M82.8 46.82L82.53 46.82L82.53 48.46L81.48 46.82L81.21 46.82L81.21 48.94L81.48 48.94L81.48 47.31L82.52 48.94L82.8 48.94L82.8 46.82"/><path fill="#ffffff" d="M84.57 48.16C84.64 48.22 84.67 48.3 84.67 48.41C84.67 48.51 84.64 48.59 84.56 48.65C84.48 48.71 84.37 48.74 84.23 48.74C84.07 48.74 83.95 48.71 83.86 48.63C83.77 48.56 83.72 48.46 83.72 48.33L83.45 48.33C83.45 48.45 83.48 48.56 83.55 48.66C83.61 48.76 83.71 48.83 83.83 48.89C83.96 48.95 84.09 48.97 84.23 48.97C84.45 48.97 84.62 48.92 84.75 48.82C84.88 48.71 84.95 48.58 84.95 48.4C84.95 48.3 84.92 48.2 84.88 48.12C84.83 48.04 84.76 47.97 84.66 47.91C84.57 47.85 84.43 47.8 84.26 47.75C84.09 47.7 83.97 47.65 83.89 47.59C83.82 47.53 83.79 47.45 83.79 47.36C83.79 47.26 83.82 47.17 83.9 47.11C83.98 47.05 84.08 47.02 84.21 47.02C84.36 47.02 84.47 47.06 84.55 47.13C84.63 47.21 84.67 47.31 84.67 47.43L84.94 47.43C84.94 47.32 84.92 47.21 84.85 47.11C84.79 47.01 84.71 46.93 84.6 46.88C84.48 46.82 84.36 46.79 84.21 46.79C84 46.79 83.84 46.85 83.71 46.96C83.58 47.07 83.51 47.2 83.51 47.37C83.51 47.52 83.57 47.64 83.67 47.74C83.78 47.85 83.95 47.93 84.18 48C84.37 48.05 84.5 48.11 84.57 48.16"/><path fill="#ffffff" d="M86.73 47.78L85.86 47.78L85.86 47.05L86.87 47.05L86.87 46.82L85.59 46.82L85.59 48.94L85.86 48.94L85.86 48.01L86.73 48.01L86.73 47.78"/><path fill="#ffffff" d="M89.08 47.82C89.08 47.61 89.05 47.43 88.98 47.27C88.91 47.12 88.81 47 88.68 46.91C88.56 46.83 88.41 46.79 88.25 46.79C88.08 46.79 87.94 46.83 87.81 46.92C87.69 47 87.59 47.12 87.52 47.28C87.45 47.43 87.42 47.61 87.42 47.82L87.42 47.97C87.42 48.17 87.45 48.35 87.52 48.5C87.59 48.65 87.69 48.77 87.82 48.85C87.94 48.93 88.09 48.97 88.25 48.97C88.42 48.97 88.56 48.93 88.69 48.85C88.81 48.77 88.91 48.65 88.98 48.5C89.05 48.34 89.08 48.16 89.08 47.95L89.08 47.82M88.81 47.97C88.8 48.22 88.75 48.41 88.66 48.54C88.56 48.67 88.43 48.73 88.25 48.73C88.07 48.73 87.94 48.67 87.84 48.53C87.74 48.39 87.69 48.19 87.69 47.95L87.69 47.79C87.69 47.56 87.74 47.37 87.84 47.24C87.94 47.1 88.07 47.03 88.25 47.03C88.42 47.03 88.56 47.1 88.66 47.24C88.76 47.37 88.81 47.56 88.81 47.82L88.81 47.97"/><path fill="#ffffff" d="M90.99 48.94L91.28 48.94L91.28 48.93L90.79 48.03C90.92 47.98 91.01 47.9 91.08 47.81C91.15 47.71 91.19 47.59 91.19 47.46C91.19 47.25 91.12 47.09 91 46.99C90.87 46.88 90.7 46.82 90.46 46.82L89.78 46.82L89.78 48.94L90.05 48.94L90.05 48.09L90.54 48.09L90.99 48.94M90.05 47.05L90.47 47.05C90.61 47.05 90.72 47.09 90.8 47.16C90.88 47.23 90.91 47.33 90.91 47.46C90.91 47.58 90.87 47.68 90.8 47.75C90.71 47.82 90.61 47.86 90.47 47.86L90.05 47.86L90.05 47.05"/><path fill="#ffffff" d="M91.86 46.82L91.86 48.94L92.13 48.94L92.13 48.12L92.11 47.23L92.78 48.94L92.99 48.94L93.67 47.22L93.65 48.12L93.65 48.94L93.92 48.94L93.92 46.82L93.56 46.82L92.89 48.55L92.21 46.82L91.86 46.82"/><path fill="#ffffff" d="M94.71 46.82h0.27v2.12h-0.27z"/><path fill="#ffffff" d="M97.36 46.82L97.09 46.82L97.09 48.46L96.05 46.82L95.78 46.82L95.78 48.94L96.05 48.94L96.05 47.31L97.09 48.94L97.36 48.94L97.36 46.82"/><path fill="#ffffff" d="M99.66 47.89L98.92 47.89L98.92 48.12L99.39 48.12L99.39 48.59C99.34 48.65 99.28 48.69 99.2 48.71C99.13 48.73 99.04 48.74 98.93 48.74C98.75 48.74 98.61 48.67 98.51 48.53C98.4 48.39 98.35 48.2 98.35 47.96L98.35 47.79C98.35 47.54 98.39 47.35 98.49 47.22C98.58 47.09 98.72 47.02 98.91 47.02C99.18 47.02 99.34 47.16 99.39 47.44L99.66 47.44C99.64 47.24 99.56 47.08 99.42 46.96C99.29 46.85 99.12 46.79 98.9 46.79C98.64 46.79 98.43 46.88 98.29 47.05C98.15 47.23 98.07 47.48 98.07 47.8L98.07 47.99C98.07 48.18 98.11 48.36 98.18 48.51C98.25 48.65 98.36 48.77 98.49 48.85C98.62 48.93 98.77 48.97 98.93 48.97C99.1 48.97 99.25 48.95 99.37 48.9C99.5 48.85 99.59 48.77 99.66 48.67L99.66 47.89"/><path fill="#ffffff" d="M103.43 48.16C103.5 48.22 103.53 48.3 103.53 48.41C103.53 48.51 103.5 48.59 103.42 48.65C103.34 48.71 103.23 48.74 103.09 48.74C102.94 48.74 102.81 48.71 102.72 48.63C102.63 48.56 102.58 48.46 102.58 48.33L102.31 48.33C102.31 48.45 102.34 48.56 102.41 48.66C102.47 48.76 102.57 48.83 102.69 48.89C102.82 48.95 102.95 48.97 103.09 48.97C103.31 48.97 103.48 48.92 103.61 48.82C103.74 48.71 103.81 48.58 103.81 48.4C103.81 48.3 103.78 48.2 103.74 48.12C103.69 48.04 103.62 47.97 103.52 47.91C103.43 47.85 103.29 47.8 103.12 47.75C102.95 47.7 102.83 47.65 102.75 47.59C102.68 47.53 102.65 47.45 102.65 47.36C102.65 47.26 102.69 47.17 102.76 47.11C102.84 47.05 102.94 47.02 103.07 47.02C103.22 47.02 103.33 47.06 103.41 47.13C103.49 47.21 103.53 47.31 103.53 47.43L103.81 47.43C103.81 47.32 103.78 47.21 103.72 47.11C103.65 47.01 103.57 46.93 103.46 46.88C103.34 46.82 103.22 46.79 103.07 46.79C102.87 46.79 102.7 46.85 102.57 46.96C102.44 47.07 102.37 47.2 102.37 47.37C102.37 47.52 102.43 47.64 102.53 47.74C102.64 47.85 102.81 47.93 103.04 48C103.23 48.05 103.36 48.11 103.43 48.16"/><path fill="#ffffff" d="M105.21 48.11C105.44 48.11 105.62 48.06 105.75 47.95C105.87 47.84 105.94 47.68 105.94 47.47C105.94 47.28 105.87 47.12 105.75 47C105.62 46.88 105.44 46.82 105.21 46.82L104.45 46.82L104.45 48.94L104.72 48.94L104.72 48.11L105.21 48.11M104.72 47.05L105.23 47.05C105.36 47.05 105.47 47.09 105.55 47.17C105.63 47.25 105.66 47.35 105.66 47.47C105.66 47.61 105.63 47.71 105.55 47.78C105.47 47.85 105.36 47.88 105.21 47.88L104.72 47.88L104.72 47.05"/><path fill="#ffffff" d="M107.72 48.94L108 48.94L107.21 46.82L106.97 46.82L106.18 48.94L106.46 48.94L106.65 48.39L107.52 48.39L107.72 48.94M107.09 47.17L107.44 48.16L106.74 48.16L107.09 47.17"/><path fill="#ffffff" d="M109.8 48.27C109.77 48.45 109.72 48.57 109.64 48.64C109.56 48.71 109.44 48.74 109.29 48.74C109.12 48.74 108.99 48.68 108.9 48.54C108.8 48.4 108.75 48.22 108.75 47.99L108.75 47.79C108.75 47.54 108.8 47.35 108.9 47.22C109 47.09 109.14 47.02 109.31 47.02C109.46 47.02 109.57 47.06 109.64 47.14C109.72 47.21 109.78 47.34 109.8 47.5L110.07 47.5C110.05 47.28 109.97 47.11 109.84 46.98C109.71 46.85 109.53 46.79 109.31 46.79C109.15 46.79 109 46.83 108.88 46.91C108.75 46.99 108.65 47.11 108.59 47.26C108.52 47.41 108.48 47.58 108.48 47.78L108.48 47.98C108.48 48.28 108.55 48.52 108.7 48.7C108.85 48.88 109.04 48.97 109.29 48.97C109.51 48.97 109.7 48.91 109.83 48.79C109.97 48.67 110.05 48.5 110.07 48.27L109.8 48.27"/><path fill="#ffffff" d="M111.9 47.73L111.01 47.73L111.01 47.05L112.04 47.05L112.04 46.82L110.74 46.82L110.74 48.94L112.05 48.94L112.05 48.71L111.01 48.71L111.01 47.96L111.9 47.96L111.9 47.73"/><path fill="#ffffff" d="M113.68 48.16C113.75 48.22 113.78 48.3 113.78 48.41C113.78 48.51 113.74 48.59 113.67 48.65C113.59 48.71 113.48 48.74 113.34 48.74C113.18 48.74 113.06 48.71 112.97 48.63C112.87 48.56 112.83 48.46 112.83 48.33L112.55 48.33C112.55 48.45 112.59 48.56 112.65 48.66C112.72 48.76 112.82 48.83 112.94 48.89C113.06 48.95 113.19 48.97 113.34 48.97C113.55 48.97 113.73 48.92 113.86 48.82C113.99 48.71 114.06 48.58 114.06 48.4C114.06 48.3 114.03 48.2 113.98 48.12C113.94 48.04 113.87 47.97 113.77 47.91C113.67 47.85 113.54 47.8 113.36 47.75C113.19 47.7 113.07 47.65 113 47.59C112.93 47.53 112.89 47.45 112.89 47.36C112.89 47.26 112.93 47.17 113.01 47.11C113.08 47.05 113.19 47.02 113.32 47.02C113.47 47.02 113.58 47.06 113.66 47.13C113.74 47.21 113.78 47.31 113.78 47.43L114.05 47.43C114.05 47.32 114.02 47.21 113.96 47.11C113.9 47.01 113.81 46.93 113.7 46.88C113.59 46.82 113.46 46.79 113.32 46.79C113.11 46.79 112.94 46.85 112.82 46.96C112.68 47.07 112.62 47.2 112.62 47.37C112.62 47.52 112.67 47.64 112.78 47.74C112.88 47.85 113.05 47.93 113.29 48C113.47 48.05 113.6 48.11 113.68 48.16"/><path fill="#ffffff" d="M114.82 49.13C114.87 49.03 114.89 48.93 114.89 48.84L114.89 48.62L114.64 48.62L114.64 48.87C114.63 49 114.59 49.13 114.5 49.26L114.64 49.37C114.72 49.31 114.78 49.23 114.82 49.13"/><path fill="#ffffff" d="M118.75 47.73L117.85 47.73L117.85 47.05L118.88 47.05L118.88 46.82L117.58 46.82L117.58 48.94L118.89 48.94L118.89 48.71L117.85 48.71L117.85 47.96L118.75 47.96L118.75 47.73"/><path fill="#ffffff" d="M121.11 46.82L120.84 46.82L120.84 48.46L119.8 46.82L119.52 46.82L119.52 48.94L119.8 48.94L119.8 47.31L120.84 48.94L121.11 48.94L121.11 46.82"/><path fill="#ffffff" d="M123.48 46.82L123.2 46.82L123.2 47.73L122.16 47.73L122.16 46.82L121.89 46.82L121.89 48.94L122.16 48.94L122.16 47.96L123.2 47.96L123.2 48.94L123.48 48.94L123.48 46.82"/><path fill="#ffffff" d="M125.62 48.94L125.9 48.94L125.11 46.82L124.87 46.82L124.08 48.94L124.36 48.94L124.55 48.39L125.42 48.39L125.62 48.94M124.99 47.17L125.34 48.16L124.63 48.16L124.99 47.17"/><path fill="#ffffff" d="M128.05 46.82L127.78 46.82L127.78 48.46L126.74 46.82L126.47 46.82L126.47 48.94L126.74 48.94L126.74 47.31L127.78 48.94L128.05 48.94L128.05 46.82"/><path fill="#ffffff" d="M130.08 48.27C130.05 48.45 130 48.57 129.92 48.64C129.83 48.71 129.72 48.74 129.57 48.74C129.4 48.74 129.27 48.68 129.17 48.54C129.08 48.4 129.03 48.22 129.03 47.99L129.03 47.79C129.03 47.54 129.08 47.35 129.18 47.22C129.28 47.09 129.42 47.02 129.59 47.02C129.73 47.02 129.84 47.06 129.92 47.14C130 47.21 130.05 47.34 130.08 47.5L130.35 47.5C130.33 47.28 130.25 47.11 130.12 46.98C129.99 46.85 129.81 46.79 129.59 46.79C129.42 46.79 129.28 46.83 129.15 46.91C129.03 46.99 128.93 47.11 128.86 47.26C128.79 47.41 128.76 47.58 128.76 47.78L128.76 47.98C128.76 48.28 128.83 48.52 128.98 48.7C129.13 48.88 129.32 48.97 129.57 48.97C129.79 48.97 129.97 48.91 130.11 48.79C130.24 48.67 130.33 48.5 130.35 48.27L130.08 48.27"/><path fill="#ffffff" d="M131.03 46.82h0.27v2.12h-0.27z"/><path fill="#ffffff" d="M133.69 46.82L133.42 46.82L133.42 48.46L132.37 46.82L132.1 46.82L132.1 48.94L132.37 48.94L132.37 47.31L133.41 48.94L133.69 48.94L133.69 46.82"/><path fill="#ffffff" d="M135.99 47.89L135.24 47.89L135.24 48.12L135.72 48.12L135.72 48.59C135.67 48.65 135.6 48.69 135.53 48.71C135.45 48.73 135.36 48.74 135.26 48.74C135.08 48.74 134.93 48.67 134.83 48.53C134.72 48.39 134.67 48.2 134.67 47.96L134.67 47.79C134.67 47.54 134.72 47.35 134.81 47.22C134.91 47.09 135.04 47.02 135.23 47.02C135.5 47.02 135.66 47.16 135.72 47.44L135.99 47.44C135.96 47.24 135.88 47.08 135.75 46.96C135.61 46.85 135.44 46.79 135.23 46.79C134.96 46.79 134.76 46.88 134.61 47.05C134.47 47.23 134.4 47.48 134.4 47.8L134.4 47.99C134.4 48.18 134.43 48.36 134.5 48.51C134.58 48.65 134.68 48.77 134.81 48.85C134.94 48.93 135.09 48.97 135.26 48.97C135.42 48.97 135.57 48.95 135.7 48.9C135.82 48.85 135.92 48.77 135.99 48.67L135.99 47.89"/><path fill="#ffffff" d="M136.86 49.13C136.91 49.03 136.93 48.93 136.93 48.84L136.93 48.62L136.67 48.62L136.67 48.87C136.67 49 136.62 49.13 136.53 49.26L136.68 49.37C136.76 49.31 136.81 49.23 136.86 49.13"/><path fill="#ffffff" d="M139.6 46.82L139.33 46.82L139.33 48.94L140.58 48.94L140.58 48.71L139.6 48.71L139.6 46.82"/><path fill="#ffffff" d="M141.2 46.82h0.27v2.12h-0.27z"/><path fill="#ffffff" d="M142.36 46.82L142.07 46.82L142.83 48.94L143.07 48.94L143.84 46.82L143.54 46.82L142.95 48.57L142.36 46.82"/><path fill="#ffffff" d="M145.57 47.73L144.68 47.73L144.68 47.05L145.7 47.05L145.7 46.82L144.41 46.82L144.41 48.94L145.72 48.94L145.72 48.71L144.68 48.71L144.68 47.96L145.57 47.96L145.57 47.73"/><path fill="#ffffff" d="M147.34 48.16C147.41 48.22 147.45 48.3 147.45 48.41C147.45 48.51 147.41 48.59 147.34 48.65C147.26 48.71 147.15 48.74 147 48.74C146.85 48.74 146.73 48.71 146.64 48.63C146.54 48.56 146.5 48.46 146.5 48.33L146.22 48.33C146.22 48.45 146.25 48.56 146.32 48.66C146.39 48.76 146.48 48.83 146.61 48.89C146.73 48.95 146.86 48.97 147 48.97C147.22 48.97 147.4 48.92 147.53 48.82C147.66 48.71 147.73 48.58 147.73 48.4C147.73 48.3 147.7 48.2 147.65 48.12C147.61 48.04 147.54 47.97 147.44 47.91C147.34 47.85 147.21 47.8 147.03 47.75C146.86 47.7 146.74 47.65 146.67 47.59C146.6 47.53 146.56 47.45 146.56 47.36C146.56 47.26 146.6 47.17 146.68 47.11C146.75 47.05 146.86 47.02 146.99 47.02C147.14 47.02 147.25 47.06 147.33 47.13C147.41 47.21 147.45 47.31 147.45 47.43L147.72 47.43C147.72 47.32 147.69 47.21 147.63 47.11C147.57 47.01 147.48 46.93 147.37 46.88C147.26 46.82 147.13 46.79 146.99 46.79C146.78 46.79 146.61 46.85 146.48 46.96C146.35 47.07 146.29 47.2 146.29 47.37C146.29 47.52 146.34 47.64 146.45 47.74C146.55 47.85 146.72 47.93 146.96 48C147.14 48.05 147.27 48.11 147.34 48.16"/><path fill="#fdb912" d="M4.74 48.37L0.28 48.37L0.28 11.75L9.59 11.75L9.59 43.51C9.59 46.2 7.42 48.37 4.74 48.37"/><path fill="#fdb912" d="M15.45 48.37L15.45 29.53C15.45 23.85 16.85 19.57 19.68 16.7C22.49 13.84 26.19 12.41 30.78 12.41L31.21 12.41L31.21 21.5L30.85 21.5C26.79 21.5 24.76 24.18 24.76 29.53L24.76 44.84C24.76 46.79 23.18 48.37 21.23 48.37L15.45 48.37"/><path fill="#fdb912" d="M45.68 37.16C47.45 38.95 49.64 39.84 52.27 39.84C54.9 39.84 57.07 38.95 58.79 37.16C60.51 35.37 61.37 33.13 61.37 30.46C61.37 27.78 60.51 25.55 58.79 23.76C57.07 21.97 54.9 21.07 52.27 21.07C49.64 21.07 47.45 21.97 45.68 23.76C43.91 25.55 43.03 27.78 43.03 30.46C43.03 33.13 43.91 35.37 45.68 37.16M52.2 48.94C47.09 48.94 42.73 47.14 39.13 43.54C35.62 40.02 33.66 35.16 33.72 30.2C33.78 25.28 35.52 21.07 38.96 17.56C42.42 14.01 47.24 11.97 52.21 11.98C57.32 11.98 61.66 13.78 65.24 17.38C68.82 20.99 70.61 25.35 70.61 30.46L70.61 44.97C70.61 46.85 69.09 48.37 67.22 48.37L61.3 48.37L61.3 44.57C60.77 45.77 59.63 46.79 57.86 47.65C56.09 48.51 54.21 48.94 52.2 48.94"/><path fill="#fdb912" d="M49.15 7.18C49.15 8.27 48.27 9.14 47.19 9.14C46.11 9.14 45.23 8.27 45.23 7.18C45.23 6.1 46.11 5.22 47.19 5.22C48.27 5.22 49.15 6.1 49.15 7.18"/><path fill="#fdb912" d="M9.59 5.22C9.59 7.79 7.51 9.88 4.94 9.88C2.36 9.88 0.28 7.79 0.28 5.22C0.28 2.65 2.36 0.57 4.94 0.57C7.51 0.57 9.59 2.65 9.59 5.22"/><path fill="#fdb912" d="M54.95 7.18C54.95 8.27 54.07 9.14 52.98 9.14C51.9 9.14 51.02 8.27 51.02 7.18C51.02 6.1 51.9 5.22 52.98 5.22C54.07 5.22 54.95 6.1 54.95 7.18"/><path fill="#fdb912" d="M60.74 7.18C60.74 8.27 59.86 9.14 58.78 9.14C57.69 9.14 56.82 8.27 56.82 7.18C56.82 6.1 57.69 5.22 58.78 5.22C59.86 5.22 60.74 6.1 60.74 7.18"/></svg>
